<?xml version="1.0" standalone="no"?>
<!DOCTYPE svg PUBLIC "-//W3C//DTD SVG 20010904//EN"
 "http://www.w3.org/TR/2001/REC-SVG-20010904/DTD/svg10.dtd">
<svg version="1.0" xmlns="http://www.w3.org/2000/svg"
 width="721.000000pt" height="1280.000000pt" viewBox="0 0 721.000000 1280.000000"
 preserveAspectRatio="xMidYMid meet">

<g transform="translate(0.000000,1280.000000) scale(0.100000,-0.100000)"
fill="#000000" stroke="none">
<path d="M6302 12763 c-6 -20 -9 -39 -7 -42 3 -2 5 2 6 10 1 8 5 3 10 -11 8
-24 8 -24 5 4 -6 46 2 56 45 56 36 0 39 -2 39 -27 -1 -36 -23 -66 -37 -52 -15
15 -33 3 -33 -21 0 -24 17 -35 33 -21 9 7 16 5 24 -8 10 -15 7 -22 -17 -40
-31 -22 -60 -28 -60 -11 0 6 -4 10 -10 10 -15 0 -12 -33 5 -57 14 -20 14 -26
-1 -62 -9 -23 -19 -41 -23 -41 -3 0 -19 -12 -34 -26 -16 -14 -31 -23 -34 -20
-19 19 -133 -105 -133 -145 0 -27 18 -24 22 4 2 16 10 22 31 23 18 1 27 -4 27
-14 0 -11 -3 -12 -14 -3 -12 10 -15 7 -14 -21 1 -18 3 -27 5 -20 9 26 22 11
19 -23 -3 -44 -16 -58 -16 -19 l-1 29 -14 -25 c-20 -35 -19 -60 4 -60 13 0 23
15 37 58 l19 57 3 -50 c4 -64 19 -79 27 -29 4 22 13 56 20 78 11 35 13 36 18
15 13 -47 8 -99 -9 -99 -12 0 -14 -6 -8 -32 4 -18 7 -38 7 -45 0 -7 3 -12 6
-11 3 0 20 0 38 -1 26 -1 31 -4 26 -18 -6 -16 -5 -16 10 -4 9 7 14 17 11 22
-3 5 2 9 10 9 9 0 16 -4 16 -10 0 -18 30 -11 31 8 7 81 11 101 26 129 10 18
23 33 30 33 19 0 16 -9 -12 -46 -29 -38 -33 -98 -9 -132 19 -28 13 -38 -15
-22 -21 11 -29 2 -12 -16 6 -5 6 -27 1 -53 -8 -44 -8 -45 10 -22 12 17 19 20
25 12 4 -8 -6 -25 -25 -44 -51 -49 -76 -89 -78 -121 -1 -16 -8 -42 -16 -57 -8
-16 -11 -31 -6 -34 5 -3 11 1 13 7 5 11 9 -36 6 -59 0 -3 6 -10 14 -14 16 -9
12 -59 -5 -59 -6 0 -8 -9 -5 -20 3 -11 1 -20 -4 -20 -5 0 -9 -7 -9 -15 0 -8 5
-15 10 -15 6 0 10 -5 10 -11 0 -6 -9 -9 -19 -6 -22 5 -34 -24 -25 -58 3 -11 1
-31 -4 -45 -9 -24 -10 -24 -17 13 -9 47 -19 48 -23 2 -1 -20 -11 -46 -22 -57
-11 -12 -20 -31 -20 -42 0 -12 -3 -31 -6 -44 -5 -18 -2 -24 15 -29 25 -6 29
-35 4 -32 -46 4 -63 -1 -63 -21 0 -11 -7 -20 -15 -20 -8 0 -15 -7 -15 -15 0
-8 -9 -15 -19 -15 -27 0 -33 -14 -25 -57 7 -36 8 -36 15 -13 l7 25 0 -25 c1
-31 -15 -112 -17 -87 0 10 -5 16 -9 13 -4 -2 -14 -1 -22 4 -10 6 -22 2 -37
-12 -25 -23 -35 -20 -40 14 -5 30 -12 35 -24 18 -8 -11 -12 -12 -16 -2 -2 6
-14 12 -25 12 -15 0 -18 5 -14 23 3 12 3 16 0 10 -3 -7 -14 -13 -24 -13 -10 0
-21 6 -23 13 -4 10 -6 10 -6 0 -1 -7 -6 -13 -11 -13 -14 0 -59 51 -60 68 0 6
-4 12 -9 12 -5 0 -11 14 -15 30 -5 28 -23 50 -70 88 -14 11 -16 10 -17 -10 -1
-16 -3 -18 -6 -6 -2 9 -13 20 -23 23 -10 3 -20 14 -23 24 -3 14 -18 20 -60 25
-70 9 -101 -6 -140 -66 -12 -19 -26 -28 -44 -28 -15 0 -34 -7 -44 -16 -9 -8
-23 -17 -31 -18 -27 -4 -57 -31 -95 -83 -26 -38 -43 -52 -55 -49 -10 2 -18 0
-18 -4 0 -9 -28 4 -74 35 -45 30 -182 32 -261 3 -33 -12 -64 -24 -70 -28 -5
-3 -23 -7 -40 -8 -44 -3 -111 -40 -150 -84 -19 -21 -39 -38 -45 -38 -5 0 -10
-4 -10 -10 0 -10 -123 -5 -141 6 -12 7 -89 -25 -89 -38 0 -4 -3 -7 -7 -6 -12
3 -73 -34 -105 -63 -16 -15 -42 -32 -57 -39 -29 -12 -44 -39 -32 -57 3 -6 62
-19 131 -31 118 -19 260 -48 266 -54 1 -2 -1 -18 -4 -37 -7 -34 -76 -102 -72
-70 5 29 0 39 -19 39 -25 0 -37 -18 -22 -33 8 -8 11 -6 11 6 0 9 4 17 8 17 13
0 8 -48 -7 -62 -9 -8 -11 -8 -7 -1 3 6 2 15 -4 18 -6 4 -10 3 -9 -2 4 -23 -6
-33 -56 -57 -32 -16 -71 -47 -98 -77 l-43 -51 -89 -9 c-99 -11 -155 -25 -155
-40 0 -6 -6 -7 -16 -1 -25 14 -97 -10 -109 -36 -5 -12 -15 -22 -22 -22 -7 0
-13 -8 -13 -17 -1 -16 -2 -16 -15 1 -15 19 -15 19 -15 -5 0 -17 -3 -20 -9 -11
-10 16 -47 11 -44 -5 1 -6 -8 -22 -21 -36 -17 -18 -21 -28 -13 -36 8 -8 8 -11
0 -11 -6 0 -9 -8 -6 -19 3 -10 0 -22 -6 -25 -6 -4 -11 -19 -11 -34 0 -27 0
-27 35 13 29 32 38 37 45 25 7 -11 10 -8 11 15 1 24 3 25 6 8 2 -13 10 -23 16
-23 8 0 8 -3 -1 -9 -10 -6 -11 -16 -4 -42 7 -23 11 -28 12 -14 1 11 2 23 1 27
0 5 2 7 7 6 4 0 15 2 25 7 10 4 21 4 24 1 4 -4 -3 -9 -15 -13 -13 -3 -22 -13
-22 -24 0 -28 15 -31 43 -9 14 11 30 20 36 20 6 0 7 7 4 17 -4 10 -2 14 5 9 6
-3 13 -2 17 4 4 6 11 8 16 5 5 -4 9 1 9 9 0 9 5 16 10 16 6 0 10 8 10 17 0 13
3 14 11 6 7 -7 8 -19 4 -30 -5 -10 -7 -22 -6 -26 1 -5 -8 -21 -19 -38 -12 -16
-19 -33 -16 -37 3 -5 -8 -16 -25 -26 -16 -9 -29 -22 -29 -28 0 -6 -7 -16 -16
-23 -11 -8 -14 -19 -9 -34 6 -20 9 -21 23 -8 10 8 25 17 35 20 24 9 23 -27 -1
-45 -10 -7 -26 -30 -35 -50 -10 -21 -26 -43 -37 -51 -11 -8 -17 -16 -14 -19 3
-4 1 -22 -4 -42 -6 -20 -8 -36 -5 -36 12 0 43 44 43 60 0 10 7 20 15 24 8 3
15 14 15 25 0 24 18 37 32 23 6 -6 4 -22 -6 -47 -9 -21 -16 -54 -16 -75 0 -20
-5 -51 -11 -69 -12 -34 -4 -55 11 -31 13 21 12 3 -1 -21 -5 -11 -14 -17 -20
-14 -5 4 -9 2 -9 -4 0 -5 5 -13 10 -16 7 -4 7 -12 0 -25 -5 -10 -10 -27 -10
-37 0 -13 6 -8 20 15 11 17 24 32 29 32 5 0 7 10 3 22 -3 14 -1 19 6 14 12 -7
27 29 17 43 -3 6 4 8 15 6 19 -4 21 -1 16 28 -4 23 -4 26 3 12 6 -16 9 -17 13
-5 3 10 4 9 3 -2 -2 -10 1 -18 7 -18 6 0 8 -6 5 -13 -3 -8 1 -14 9 -14 7 0 11
4 8 9 -9 15 17 38 42 38 15 0 24 6 24 16 0 8 4 12 10 9 5 -3 12 7 16 22 8 32
41 73 61 73 7 0 13 7 13 15 0 9 8 18 18 22 19 6 72 61 72 74 0 5 6 9 13 9 7 0
24 14 39 30 28 32 136 74 163 64 8 -3 20 -2 27 2 7 4 28 9 48 11 20 3 46 15
61 29 21 20 35 25 66 23 21 -2 44 0 50 4 7 4 48 5 91 1 55 -4 87 -2 103 7 15
8 24 8 26 2 4 -10 71 3 83 17 25 26 96 40 115 21 6 -5 25 -7 43 -4 27 4 32 9
26 25 -5 18 -3 19 28 13 55 -11 68 -16 68 -25 0 -6 11 -5 26 0 36 14 44 13 45
-7 0 -15 2 -15 9 2 5 11 9 16 9 11 1 -5 10 -1 21 9 19 17 20 17 20 -1 1 -18 1
-18 14 -1 19 24 36 21 36 -7 0 -18 7 -25 27 -29 16 -3 31 -1 34 5 4 6 12 7 18
3 9 -5 9 -10 0 -21 -6 -8 -9 -18 -5 -21 4 -4 11 -1 15 6 5 7 13 11 19 7 6 -4
12 5 14 21 4 33 47 48 49 16 0 -10 3 -13 5 -6 8 20 32 3 39 -26 5 -23 10 -27
28 -24 22 4 23 2 22 -54 -1 -32 0 -41 2 -20 3 25 9 37 20 37 13 0 15 -9 10
-47 -2 -27 -8 -57 -12 -68 -6 -16 -5 -18 5 -8 7 6 19 9 27 6 12 -5 14 5 11 60
-2 44 1 68 9 71 18 7 20 -1 13 -49 -4 -25 -3 -45 2 -45 4 0 8 -18 8 -40 0 -22
5 -40 10 -40 6 0 10 -19 11 -42 0 -33 2 -38 9 -23 8 19 9 19 9 -2 1 -19 5 -21
41 -16 l40 6 0 -42 c0 -22 4 -41 8 -41 5 0 17 -17 26 -38 13 -29 16 -51 11
-85 -9 -58 1 -108 21 -100 8 3 14 1 14 -5 0 -6 -4 -12 -9 -14 -4 -1 -11 -19
-15 -39 -6 -34 -4 -37 19 -43 39 -10 28 -39 -20 -52 -52 -14 -78 -25 -87 -38
-11 -16 2 -27 23 -21 15 5 19 1 19 -19 0 -14 6 -26 13 -26 6 0 23 -3 36 -7 14
-4 22 -2 18 3 -9 15 9 37 32 41 13 2 21 -3 21 -12 0 -8 7 -15 16 -15 8 0 13
-4 10 -9 -7 -10 13 -71 23 -71 4 0 12 5 18 11 18 18 43 3 40 -23 -1 -14 3 -22
10 -21 7 2 23 -1 36 -6 16 -6 28 -6 36 2 8 8 11 4 11 -15 0 -17 -7 -27 -20
-31 -19 -5 -19 -6 -2 -46 9 -22 23 -41 30 -41 8 0 12 -18 11 -60 -1 -33 -6
-60 -10 -60 -5 0 -9 -8 -9 -17 0 -16 2 -16 11 -3 8 12 10 12 7 -5 -2 -13 -12
-21 -31 -23 -17 -2 -27 -9 -28 -20 0 -14 -2 -13 -9 3 -7 16 -9 17 -9 3 -1 -9
-17 -29 -35 -43 -36 -27 -62 -84 -52 -111 3 -8 17 -19 31 -24 28 -11 34 -44
10 -54 -8 -3 -15 -15 -15 -26 0 -11 -4 -20 -10 -20 -5 0 -10 10 -10 23 0 16
-3 18 -9 8 -6 -9 -11 -10 -15 -2 -13 21 -26 11 -26 -19 0 -20 -7 -33 -22 -41
-13 -7 -26 -17 -30 -23 -4 -6 -12 -12 -18 -12 -5 -1 -14 -2 -19 -3 -5 0 -11
-10 -14 -21 -3 -12 -11 -18 -19 -15 -7 3 -20 -8 -30 -25 -10 -18 -25 -30 -38
-30 -11 0 -20 -6 -20 -12 0 -9 -4 -8 -10 2 -6 8 -10 31 -9 50 2 45 -9 70 -34
79 -18 7 -18 9 -3 23 20 21 20 29 0 21 -13 -5 -15 -2 -9 17 5 16 4 20 -5 15
-7 -4 -10 -20 -8 -36 3 -16 0 -31 -6 -33 -7 -3 -7 -5 1 -5 13 -1 7 -69 -8 -86
-5 -5 -9 -41 -9 -80 0 -38 -4 -76 -9 -84 -6 -9 -4 -32 5 -60 7 -26 16 -74 18
-106 5 -72 4 -67 15 -61 5 4 12 -13 16 -36 4 -24 13 -56 20 -73 7 -16 19 -45
26 -62 8 -18 17 -33 20 -33 4 0 12 -13 19 -30 7 -16 16 -30 19 -30 11 0 53
-101 47 -115 -2 -7 -1 -16 4 -21 5 -5 13 -37 19 -72 9 -53 16 -69 46 -96 32
-30 35 -37 35 -92 0 -41 6 -68 19 -87 21 -33 17 -70 -15 -126 -10 -18 -25 -45
-33 -60 -29 -56 -71 -82 -71 -44 0 15 -2 15 -19 -1 -11 -10 -24 -15 -30 -12
-5 4 -12 2 -16 -4 -4 -6 -11 -8 -16 -5 -5 4 -9 1 -9 -4 0 -6 -15 -11 -33 -11
-18 0 -39 -6 -45 -12 -8 -8 -15 -9 -20 -3 -8 11 -94 15 -102 5 -3 -4 -30 -19
-60 -33 -80 -39 -123 -65 -143 -89 -15 -18 -28 -21 -73 -20 -29 1 -54 -2 -54
-7 0 -15 50 -62 59 -56 5 3 21 1 35 -5 15 -5 26 -6 26 0 0 5 12 5 29 0 21 -6
33 -4 41 5 6 7 24 15 40 18 16 4 39 16 50 27 19 19 47 20 36 1 -3 -4 8 -5 25
-3 16 2 32 8 35 13 6 11 44 12 44 1 0 -4 19 -6 43 -4 38 3 46 0 61 -22 9 -14
24 -26 32 -26 11 0 14 -5 10 -16 -3 -9 -6 -19 -6 -23 0 -19 -40 -51 -64 -51
-15 0 -29 -6 -32 -13 -6 -17 -109 -14 -130 4 -11 9 -19 8 -36 -7 -36 -33 -78
-75 -78 -80 0 -5 -17 -27 -41 -52 -22 -24 -55 -45 -65 -43 -5 1 -11 -7 -14
-19 -3 -12 -9 -20 -13 -18 -13 4 -38 -75 -28 -85 5 -5 12 0 16 12 6 20 25 30
25 13 0 -18 -26 -62 -36 -62 -6 0 -16 15 -22 33 -8 25 -10 27 -11 10 -1 -14
-7 -23 -17 -23 -10 0 -14 6 -10 15 7 20 -18 19 -49 -1 -14 -9 -25 -25 -25 -36
0 -10 -4 -16 -10 -13 -5 3 -10 -1 -10 -9 0 -23 -15 -19 -28 7 -6 12 -11 16
-11 10 -1 -7 -7 -13 -14 -13 -8 0 -20 -19 -26 -42 -12 -40 -14 -41 -25 -21 -8
16 -15 20 -26 13 -13 -8 -12 -10 3 -10 10 0 17 -8 17 -20 0 -21 -20 -29 -20
-7 -1 7 -6 5 -14 -5 -7 -10 -18 -18 -25 -18 -6 0 -11 -7 -11 -16 0 -13 -7 -15
-37 -11 -21 3 -30 3 -20 0 19 -5 17 -30 -2 -25 -6 1 -11 -8 -12 -20 0 -20 -2
-19 -16 9 l-16 31 -38 -76 c-22 -42 -39 -79 -39 -82 0 -4 12 -5 26 -2 19 3 25
1 20 -7 -4 -6 -12 -9 -17 -6 -5 4 -9 -10 -9 -30 0 -20 4 -34 8 -31 13 8 14
-94 2 -109 -6 -8 -18 -11 -26 -8 -8 3 -14 1 -14 -5 0 -5 -10 -12 -21 -15 -15
-4 -20 -11 -16 -21 4 -9 2 -16 -3 -16 -6 0 -10 5 -10 10 0 7 -7 7 -21 0 -21
-12 -109 -5 -119 8 -10 14 -60 31 -74 26 -19 -7 -115 46 -122 68 -3 11 -19 21
-35 25 -16 3 -29 10 -29 14 0 5 -11 14 -25 19 -14 5 -28 17 -31 25 -4 8 -14
15 -23 15 -9 0 -21 10 -26 23 -6 12 -14 22 -20 22 -17 1 -55 29 -55 41 0 13
-36 27 -66 25 -11 -1 -40 16 -66 41 -42 38 -48 41 -57 26 -11 -18 -41 -14 -41
6 0 6 -9 22 -19 35 -16 21 -19 21 -24 7 -4 -10 -11 -14 -17 -11 -11 7 -13 -4
-10 -47 2 -34 -15 -37 -25 -5 -6 21 -7 21 -16 -8 -5 -16 -8 -41 -7 -55 1 -14
-2 -31 -7 -39 -5 -10 -4 -16 3 -19 7 -2 12 -12 12 -23 0 -10 4 -18 9 -17 4 2
29 -23 55 -54 42 -52 51 -58 85 -58 21 0 65 12 97 27 75 35 101 37 108 8 3
-12 17 -28 32 -35 14 -8 30 -22 35 -32 5 -10 17 -18 25 -18 21 0 62 -47 85
-97 21 -46 46 -55 108 -40 47 12 69 4 124 -46 44 -39 61 -61 83 -107 4 -8 14
-21 21 -30 7 -8 19 -23 26 -34 8 -11 31 -20 60 -23 26 -3 50 -10 53 -14 3 -5
23 -9 44 -9 41 0 90 -17 90 -32 0 -4 7 -8 15 -8 8 0 17 -11 21 -25 3 -14 9
-23 13 -21 3 2 15 -13 25 -35 17 -35 18 -43 5 -101 -8 -35 -13 -70 -12 -78 6
-32 -9 -82 -29 -102 -15 -15 -23 -37 -24 -67 -2 -25 -7 -47 -13 -49 -5 -2 -7
-10 -4 -18 3 -7 -2 -17 -12 -20 -11 -5 -16 -17 -14 -38 3 -53 -1 -77 -11 -71
-6 4 -8 10 -6 14 3 4 1 13 -5 21 -7 12 -9 11 -10 -5 0 -17 -1 -18 -7 -3 -10
26 -35 5 -38 -31 -1 -17 2 -31 7 -31 5 0 9 10 9 22 0 12 2 19 5 16 6 -5 16
-63 16 -90 0 -10 4 -19 10 -19 5 -1 15 -2 22 -3 11 -1 13 -8 9 -36 -1 -6 -5
-9 -9 -9 -20 3 -31 -2 -37 -17 -3 -8 -2 -12 4 -9 6 4 10 -5 10 -20 0 -14 -4
-24 -9 -21 -5 3 -19 -22 -31 -57 -12 -34 -29 -71 -36 -82 -8 -11 -14 -27 -14
-35 0 -9 -13 -29 -29 -44 -16 -16 -32 -38 -35 -50 -3 -11 -23 -34 -43 -49 -33
-25 -38 -26 -43 -11 -6 16 -7 16 -13 0 -4 -10 -7 -26 -7 -37 0 -11 -7 -22 -16
-26 -8 -3 -19 -16 -24 -29 -7 -16 -14 -21 -30 -17 -14 4 -19 1 -15 -8 7 -21
-23 -58 -34 -41 -6 9 -14 10 -34 3 -15 -6 -34 -8 -42 -5 -9 4 -15 0 -15 -10 0
-8 -6 -13 -12 -11 -7 3 -18 1 -23 -3 -14 -10 -43 -71 -50 -104 -3 -16 -12 -28
-20 -28 -10 0 -15 -10 -15 -28 0 -15 -7 -38 -16 -50 -9 -13 -13 -29 -10 -37 3
-9 -1 -15 -9 -15 -18 0 -20 -16 -2 -23 9 -4 9 -6 0 -6 -7 -1 -15 -17 -19 -37
-5 -25 -11 -34 -21 -30 -11 5 -14 -1 -12 -22 3 -34 -19 -104 -37 -115 -7 -4
-16 -30 -20 -57 -4 -27 -10 -47 -15 -44 -5 3 -9 -10 -10 -28 -1 -30 -2 -31 -8
-8 -6 19 -9 9 -14 -43 -5 -47 -14 -74 -27 -87 -19 -19 -26 -59 -22 -130 2 -25
1 -25 -8 -2 -5 12 -15 22 -22 21 -10 0 -10 -2 0 -6 6 -2 12 -19 12 -36 0 -26
-2 -29 -11 -17 -8 11 -9 8 -5 -16 3 -19 0 -39 -9 -50 -8 -11 -14 -26 -14 -34
0 -10 3 -8 9 5 8 18 9 17 9 -8 1 -22 -3 -28 -16 -25 -12 2 -17 12 -16 28 1 15
0 18 -3 8 -6 -20 -24 -25 -24 -7 0 6 -7 4 -15 -5 -21 -20 -19 -26 10 -26 35 0
31 -17 -10 -37 -19 -9 -32 -19 -30 -23 10 -17 -112 1 -185 28 -8 3 -18 4 -22
4 -5 -1 -8 2 -8 6 0 4 -13 9 -29 10 -18 1 -28 -3 -28 -10 3 -34 -16 -159 -26
-165 -10 -6 -6 61 8 147 5 30 2 38 -21 54 -14 10 -37 19 -50 20 -13 0 -24 7
-24 14 0 6 -9 12 -20 12 -11 0 -20 5 -20 11 0 6 -5 9 -12 7 -6 -2 -31 16 -54
40 -47 48 -74 52 -85 12 -6 -20 -7 -21 -8 -5 -1 17 -3 17 -11 5 -8 -13 -10
-13 -11 3 -1 9 -2 23 -3 30 0 6 -11 12 -23 12 -12 0 -28 6 -34 13 -7 6 -18 12
-24 12 -7 0 -18 12 -26 27 -20 39 -30 49 -61 56 -23 6 -29 3 -42 -25 l-16 -32
76 -73 c54 -52 74 -77 70 -90 -3 -10 -17 -106 -31 -213 -30 -215 -57 -312 -82
-287 -13 13 -13 18 1 38 19 31 21 40 5 50 -10 6 -9 23 5 81 9 40 21 134 25
208 5 74 10 140 11 145 5 23 -3 37 -48 84 l-48 49 -93 11 c-246 30 -291 32
-320 13 -14 -10 -43 -26 -63 -36 -21 -9 -38 -20 -38 -24 0 -4 -11 -59 -24
-122 -29 -141 -30 -223 -2 -228 10 -2 46 -20 80 -40 33 -20 66 -37 71 -37 32
-2 53 -17 48 -35 -3 -11 -12 -20 -19 -20 -17 0 -18 17 -1 23 6 2 8 8 4 13 -4
5 -12 2 -16 -5 -5 -8 -14 -10 -21 -6 -7 4 -16 2 -21 -6 -6 -11 -13 -11 -26 -3
-10 6 -30 10 -45 10 -17 -1 -28 3 -28 12 0 7 -5 10 -10 7 -5 -3 -10 0 -10 8 0
11 -10 14 -37 13 -20 -1 -42 4 -49 11 -7 7 -15 9 -18 4 -8 -12 4 -43 22 -57
10 -7 13 -20 9 -40 -18 -88 -19 -94 -8 -94 17 0 14 -14 -16 -76 -20 -43 -24
-60 -16 -73 8 -12 8 -23 0 -37 -11 -19 -25 -88 -33 -154 -2 -19 -9 -48 -15
-63 -9 -22 -9 -31 -1 -36 8 -5 10 -27 7 -64 -3 -34 -1 -57 5 -57 6 0 11 12 11
28 2 23 2 24 6 4 2 -12 -7 -47 -21 -78 -28 -60 -32 -79 -16 -69 15 9 12 0 -10
-41 -30 -52 -40 -121 -41 -269 0 -129 -17 -233 -42 -264 -9 -12 -9 -13 0 -7
18 10 16 -9 -2 -24 -20 -17 -19 -31 2 -23 13 5 15 3 9 -13 -6 -16 -27 -159
-27 -189 0 -13 11 -66 18 -85 10 -28 12 -60 2 -60 -5 0 -9 -7 -9 -15 0 -18
-17 -20 -22 -3 -6 16 -48 -22 -48 -44 0 -19 -14 -31 -24 -21 -3 3 5 21 19 39
26 34 32 50 15 39 -6 -3 -10 4 -10 16 0 17 -3 19 -14 10 -8 -7 -18 -26 -21
-42 -7 -31 -26 -50 -33 -31 -2 6 -2 13 0 15 2 2 -5 11 -14 20 -17 18 -43 24
-33 8 3 -5 6 -32 6 -60 1 -28 5 -48 9 -46 7 4 7 -36 1 -67 -2 -15 -31 -8 -31
7 0 14 -13 20 -35 15 -5 -1 -18 -3 -28 -5 -12 -3 -22 7 -31 30 -13 30 -12 40
8 102 12 37 29 82 38 98 10 17 24 46 33 65 31 68 49 98 75 129 38 43 46 68 70
221 11 74 27 168 36 208 18 89 44 334 44 412 0 32 4 69 9 82 11 28 29 266 35
441 2 70 6 131 10 134 9 10 7 161 -3 167 -15 10 -34 -23 -27 -49 6 -23 -10
-65 -25 -65 -4 0 -10 7 -13 16 -3 8 -2 12 4 9 6 -3 10 5 10 19 0 19 -4 24 -16
19 -13 -5 -15 -2 -10 15 4 11 2 23 -4 27 -6 4 -10 -8 -11 -32 -1 -21 -2 -50
-2 -65 l-1 -27 -28 32 c-15 18 -25 39 -23 47 3 9 -7 24 -22 35 -15 11 -38 30
-51 43 -29 26 -37 27 -77 6 -16 -8 -26 -12 -23 -8 16 16 -41 47 -62 34 -7 -4
-20 -4 -29 0 -9 5 -28 11 -43 15 -16 3 -28 12 -28 20 0 8 -9 15 -19 15 -11 0
-23 5 -26 11 -4 5 -12 8 -18 6 -7 -2 -18 2 -25 10 -17 16 -32 17 -32 1 0 -7
-7 -2 -16 10 -8 12 -22 22 -30 22 -8 0 -14 5 -14 11 0 7 -10 9 -24 7 -16 -3
-27 0 -30 9 -3 8 -10 11 -16 8 -5 -3 -15 5 -22 19 -6 14 -17 26 -24 26 -6 0
-14 7 -18 15 -3 9 -18 15 -36 15 -25 0 -30 -4 -30 -25 0 -14 9 -33 20 -42 11
-10 20 -22 20 -29 0 -6 34 -46 75 -89 41 -44 75 -85 75 -92 0 -7 6 -13 13 -13
8 0 20 -12 28 -27 8 -16 19 -32 25 -38 21 -19 84 -113 84 -124 0 -7 4 -9 10
-6 6 4 10 -7 10 -25 0 -27 -3 -31 -22 -29 -13 2 -29 -1 -37 -5 -8 -5 -48 -11
-89 -13 -56 -3 -79 -8 -88 -21 -12 -15 -13 -15 -14 7 0 24 0 24 -20 6 -31 -28
-92 -47 -102 -32 -5 8 -8 8 -8 1 0 -6 -24 -19 -54 -28 -30 -10 -72 -26 -92
-37 -21 -10 -45 -19 -54 -19 -9 0 -20 -4 -25 -8 -6 -5 -30 -15 -54 -22 -51
-17 -101 -60 -101 -89 0 -20 11 -25 48 -24 6 1 12 -3 12 -7 0 -4 42 -8 93 -10
50 -1 103 -3 117 -5 14 -1 35 -3 47 -4 17 -1 20 -6 15 -23 -6 -26 -30 -53 -39
-45 -3 3 -17 1 -31 -4 -15 -6 -43 -12 -62 -14 -19 -3 -48 -6 -65 -9 -16 -3
-52 -8 -80 -11 -59 -8 -106 -24 -120 -42 -6 -7 -19 -10 -32 -7 -17 5 -23 14
-23 36 0 16 -4 37 -9 46 -13 25 4 106 39 181 40 85 57 173 70 361 6 85 17 182
24 215 8 33 19 101 26 150 6 50 19 126 27 170 27 140 41 246 38 283 -2 21 -6
65 -10 99 -4 38 -2 64 5 68 5 3 10 15 10 25 0 10 13 47 29 82 41 90 53 137 38
153 -10 9 -15 9 -26 -2 -9 -10 -16 -11 -25 -4 -19 16 -25 4 -19 -35 5 -28 3
-33 -10 -29 -20 8 -34 -15 -16 -26 10 -6 11 -9 2 -9 -7 0 -13 -8 -13 -17 -1
-17 -1 -17 -14 -1 -16 22 -56 24 -56 3 0 -10 -14 -17 -40 -21 -30 -5 -40 -11
-40 -25 0 -11 7 -19 17 -19 15 0 14 -2 -2 -14 -19 -14 -19 -14 5 -13 14 0 32
-3 42 -7 11 -5 18 -2 21 11 3 12 5 9 6 -9 1 -26 -1 -27 -31 -22 l-33 5 33 -17
c17 -9 32 -20 32 -24 0 -13 -54 -19 -113 -13 -49 5 -57 3 -57 -11 0 -21 -72
-22 -90 -1 -14 16 -40 20 -40 6 0 -5 6 -11 13 -14 6 -2 9 -8 4 -12 -4 -5 -13
-3 -19 3 -7 7 -20 12 -30 12 -11 0 -15 5 -12 15 4 8 1 15 -5 15 -6 0 -11 -7
-11 -15 0 -8 -4 -15 -10 -15 -5 0 -10 9 -10 20 0 28 -20 25 -21 -2 0 -21 -1
-22 -8 -4 -7 19 -8 19 -14 -3 -3 -14 -10 -20 -17 -16 -6 4 -9 13 -6 21 7 19
-4 18 -19 -2 -9 -13 -16 -14 -33 -5 -14 8 -23 8 -27 0 -4 -5 -19 -9 -33 -7
-21 2 -28 -2 -30 -17 -1 -11 -14 -25 -28 -32 -23 -11 -25 -10 -24 10 4 41 0
42 -21 2 -27 -51 -24 -49 -49 -35 -18 10 -24 9 -30 -1 -12 -18 -48 -18 -56 0
-5 14 -7 13 -14 -4 -7 -17 -9 -17 -9 -2 -1 10 -9 17 -21 17 -13 0 -18 -5 -14
-15 4 -8 1 -15 -5 -15 -6 0 -11 7 -11 15 0 8 -4 15 -10 15 -5 0 -10 -5 -10
-10 0 -7 -6 -7 -19 0 -16 8 -23 5 -38 -13 -14 -18 -26 -21 -60 -19 -26 2 -43
-1 -43 -7 0 -6 -18 -11 -40 -11 l-40 0 0 -1720 0 -1720 638 0 c350 0 642 4
647 8 6 4 21 20 33 36 12 16 22 24 22 19 0 -5 -7 -18 -15 -29 -8 -10 -15 -22
-15 -26 0 -5 1328 -8 2950 -8 l2950 0 0 6400 0 6400 -339 0 c-299 0 -340 -2
-352 -16 -17 -21 -37 -55 -45 -76 -12 -35 -24 -17 -25 40 -1 31 -4 44 -6 27
-7 -56 -14 -76 -23 -70 -6 3 -9 23 -9 43 l2 37 7 -35 7 -35 2 43 1 42 -58 0
-59 0 -11 -37z m68 -323 c0 -5 -4 -10 -10 -10 -5 0 -10 5 -10 10 0 6 5 10 10
10 6 0 10 -4 10 -10z m-144 -87 c-7 -17 -8 -17 -17 0 -12 21 -2 44 13 29 6 -6
8 -19 4 -29z m-19 -175 c-2 -13 -4 -3 -4 22 0 25 2 35 4 23 2 -13 2 -33 0 -45z
m137 -14 c9 -23 7 -34 -5 -34 -6 0 -9 7 -5 15 3 8 1 15 -4 15 -6 0 -10 5 -10
10 0 16 17 12 24 -6z m-31 -31 c7 -35 -1 -53 -23 -53 -28 0 -43 63 -17 73 26
11 35 6 40 -20z m114 -35 c-2 -13 -4 -3 -4 22 0 25 2 35 4 23 2 -13 2 -33 0
-45z m20 0 c-2 -13 -4 -3 -4 22 0 25 2 35 4 23 2 -13 2 -33 0 -45z m-77 8 c0
-3 -4 -8 -10 -11 -5 -3 -10 -1 -10 4 0 6 5 11 10 11 6 0 10 -2 10 -4z m106
-101 c-4 -19 -12 -35 -18 -35 -6 0 -7 7 -3 18 4 9 10 27 13 40 8 37 15 16 8
-23z m21 8 c-3 -10 -5 -4 -5 12 0 17 2 24 5 18 2 -7 2 -21 0 -30z m-8 -117 c0
-20 -1 -20 -9 -1 -5 11 -9 14 -9 8 -1 -17 -31 -17 -31 0 0 20 9 25 31 20 11
-3 19 -14 18 -27z m-92 -58 c-3 -8 -6 -5 -6 6 -1 11 2 17 5 13 3 -3 4 -12 1
-19z m33 -34 c0 -8 -4 -14 -10 -14 -5 0 -10 9 -10 21 0 11 5 17 10 14 6 -3 10
-13 10 -21z m-50 -121 c-1 -24 -2 -26 -11 -10 -5 9 -7 22 -4 27 10 17 15 11
15 -17z m35 -54 c4 -16 2 -30 -4 -33 -6 -4 -11 1 -11 11 0 10 -3 29 -6 43 -5
17 -4 22 4 15 6 -5 14 -22 17 -36z m35 1 c0 -5 -5 -10 -11 -10 -5 0 -7 5 -4
10 3 6 8 10 11 10 2 0 4 -4 4 -10z m-51 -87 c-1 -18 -3 -21 -6 -10 -3 10 -9
14 -16 10 -7 -4 -6 1 2 10 18 23 21 22 20 -10z m-59 -83 c0 -5 -4 -10 -10 -10
-5 0 -10 5 -10 10 0 6 5 10 10 10 6 0 10 -4 10 -10z m-10 -65 c0 -5 -5 -3 -10
5 -5 8 -10 20 -10 25 0 6 5 3 10 -5 5 -8 10 -19 10 -25z m-23 -27 c-3 -8 -6
-5 -6 6 -1 11 2 17 5 13 3 -3 4 -12 1 -19z m-27 -59 c0 -5 -4 -9 -10 -9 -5 0
-10 7 -10 16 0 8 5 12 10 9 6 -3 10 -10 10 -16z m50 -9 c0 -11 5 -20 10 -20 6
0 10 -7 10 -15 0 -22 -17 -18 -23 6 -3 12 -11 19 -19 17 -14 -5 -16 -30 -4
-65 7 -21 4 -23 -24 -23 -25 0 -31 3 -26 16 19 50 18 64 -3 64 -12 0 -21 4
-21 8 0 4 16 6 35 4 25 -3 36 0 41 12 9 22 24 20 24 -4z m77 -12 c-3 -8 -6 -5
-6 6 -1 11 2 17 5 13 3 -3 4 -12 1 -19z m-170 -40 c-3 -8 -6 -5 -6 6 -1 11 2
17 5 13 3 -3 4 -12 1 -19z m90 -40 c-3 -7 -5 -2 -5 12 0 14 2 19 5 13 2 -7 2
-19 0 -25z m-43 -24 c18 -7 22 -24 5 -24 -6 0 -17 7 -25 15 -16 16 -7 19 20 9z
m-30 -28 c-3 -8 2 -16 13 -19 14 -4 14 -5 -4 -6 -17 -1 -23 5 -23 19 0 11 4
20 10 20 5 0 7 -6 4 -14z m-157 -58 c-3 -8 -6 -5 -6 6 -1 11 2 17 5 13 3 -3 4
-12 1 -19z m93 7 c0 -8 -4 -15 -10 -15 -5 0 -10 7 -10 15 0 8 5 15 10 15 6 0
10 -7 10 -15z m-63 -57 c-2 -13 -4 -5 -4 17 -1 22 1 32 4 23 2 -10 2 -28 0
-40z m35 -15 l-10 -38 -1 50 c-1 36 2 46 10 38 8 -8 8 -22 1 -50z m48 16 c0
-5 -4 -9 -10 -9 -5 0 -10 7 -10 16 0 8 5 12 10 9 6 -3 10 -10 10 -16z m-290
-74 c0 -8 -4 -15 -10 -15 -5 0 -7 7 -4 15 4 8 8 15 10 15 2 0 4 -7 4 -15z
m385 -63 c-6 -4 -25 -20 -42 -36 -26 -24 -33 -26 -33 -13 0 9 7 17 15 17 9 0
12 6 8 17 -5 12 -2 15 10 10 9 -3 19 -2 22 3 4 6 11 10 18 10 6 0 7 -3 2 -8z
m-88 -74 c-3 -7 -5 -2 -5 12 0 14 2 19 5 13 2 -7 2 -19 0 -25z m-2341 -644
c-10 -14 -20 -23 -23 -20 -3 3 2 17 11 32 10 14 20 23 23 20 3 -3 -2 -17 -11
-32z m-103 -64 c-3 -11 -9 -17 -14 -15 -4 3 -13 -4 -19 -15 -6 -11 -15 -20
-20 -20 -11 0 15 50 32 61 21 14 27 10 21 -11z m157 -20 c0 -5 -5 -10 -11 -10
-5 0 -7 5 -4 10 3 6 8 10 11 10 2 0 4 -4 4 -10z m-100 -15 c-7 -9 -15 -13 -19
-10 -3 3 1 10 9 15 21 14 24 12 10 -5z m-50 -39 c0 -3 -4 -8 -10 -11 -5 -3
-10 -1 -10 4 0 6 5 11 10 11 6 0 10 -2 10 -4z m2013 -81 c4 -8 2 -17 -3 -20
-6 -4 -10 3 -10 14 0 25 6 27 13 6z m-1883 -5 c0 -5 -4 -10 -10 -10 -5 0 -10
5 -10 10 0 6 5 10 10 10 6 0 10 -4 10 -10z m1917 -72 c-3 -8 -6 -5 -6 6 -1 11
2 17 5 13 3 -3 4 -12 1 -19z m-27 2 c0 -5 -4 -10 -10 -10 -5 0 -10 5 -10 10 0
6 5 10 10 10 6 0 10 -4 10 -10z m-4 -57 c-11 -11 -19 6 -11 24 8 17 8 17 12 0
3 -10 2 -21 -1 -24z m-1956 -79 c0 -8 -5 -12 -10 -9 -6 4 -8 11 -5 16 9 14 15
11 15 -7z m2108 -146 c-6 -18 -28 -21 -28 -4 0 9 7 16 16 16 9 0 14 -5 12 -12z
m-2098 -63 c10 -12 10 -15 -4 -15 -9 0 -16 7 -16 15 0 8 2 15 4 15 2 0 9 -7
16 -15z m2153 -255 c-3 -11 -9 -20 -14 -20 -10 0 -12 24 -2 33 13 13 21 7 16
-13z m187 -664 c0 -3 -4 -8 -10 -11 -5 -3 -10 -1 -10 4 0 6 5 11 10 11 6 0 10
-2 10 -4z m-27 -69 c3 -8 2 -20 -3 -26 -5 -9 -7 -4 -7 13 0 29 2 32 10 13z
m191 -458 c-3 -5 -18 -9 -35 -9 -16 0 -29 4 -29 9 0 5 16 9 35 9 19 0 32 -4
29 -9z m-94 -13 c0 -11 -19 -15 -25 -6 -3 5 1 10 9 10 9 0 16 -2 16 -4z m-66
-214 c2 -4 -4 -13 -15 -20 -21 -13 -22 -12 -13 12 7 17 20 21 28 8z m96 -592
c9 13 11 13 20 0 21 -31 8 -38 -34 -19 -14 7 -23 16 -19 22 3 5 9 3 14 -4 8
-12 11 -11 19 1z m35 -80 c-3 -6 -16 -10 -29 -10 -12 0 -27 -5 -34 -12 -9 -9
-12 -9 -12 -1 0 7 15 17 34 24 24 9 33 17 29 28 -3 12 -2 12 7 -2 6 -9 8 -22
5 -27z m85 -31 c0 -6 -4 -7 -10 -4 -5 3 -10 11 -10 16 0 6 5 7 10 4 6 -3 10
-11 10 -16z m-34 -54 c-4 -14 -2 -25 4 -25 5 0 10 6 11 13 0 10 2 10 6 0 2 -7
12 -13 20 -13 12 0 14 -7 9 -34 -5 -23 -2 -37 8 -45 24 -20 36 -5 25 31 -9 34
4 51 44 54 23 2 22 -11 -3 -36 -22 -22 -25 -37 -9 -42 13 -4 -9 -59 -28 -71
-16 -10 -17 -43 -2 -53 15 -9 3 -60 -22 -92 -19 -25 -20 -27 -3 -31 10 -2 23
4 30 14 16 21 27 4 18 -29 -7 -28 -33 -41 -64 -31 -11 4 -20 2 -20 -4 0 -6 -9
-11 -20 -11 -17 0 -20 7 -22 43 -1 23 -1 52 -1 64 1 13 -6 23 -17 26 -11 3
-20 16 -22 33 -2 21 -9 30 -25 32 -27 4 -27 7 -9 60 8 23 11 44 6 47 -4 3 -6
24 -2 48 6 47 33 77 70 77 21 0 23 -3 18 -25z m116 -227 c-7 -7 -12 -8 -12 -2
0 14 12 26 19 19 2 -3 -1 -11 -7 -17z m-182 -88 c0 -5 -4 -10 -10 -10 -5 0
-10 5 -10 10 0 6 5 10 10 10 6 0 10 -4 10 -10z m127 -122 c-3 -7 -5 -2 -5 12
0 14 2 19 5 13 2 -7 2 -19 0 -25z m-397 -305 c0 -14 -17 -39 -42 -64 -65 -63
-79 -70 -129 -63 -24 3 -57 8 -74 9 -49 5 -95 17 -101 26 -2 4 -11 6 -19 3 -8
-4 -18 1 -21 10 -3 9 -11 13 -18 10 -6 -3 -4 0 4 8 8 7 21 25 29 40 8 15 23
30 33 34 10 3 16 9 13 14 -3 5 -1 12 5 15 11 7 50 -30 50 -47 0 -5 4 -7 9 -4
5 4 11 1 13 -5 6 -18 73 5 103 35 26 26 35 30 67 27 9 -1 19 3 23 9 11 17 55
-29 55 -57z m-560 -163 c0 -16 -42 -8 -48 9 -3 8 0 11 6 7 6 -4 8 2 5 16 l-6
23 22 -22 c11 -12 21 -27 21 -33z m-283 -80 c-5 -40 -10 -43 -24 -14 -9 19 -8
24 3 24 8 0 14 5 14 10 0 6 2 10 5 10 3 0 3 -14 2 -30z m23 5 c0 -8 -4 -15
-10 -15 -5 0 -7 7 -4 15 4 8 8 15 10 15 2 0 4 -7 4 -15z m-60 -30 c0 -8 -7
-15 -15 -15 -9 0 -12 6 -9 15 4 8 10 15 15 15 5 0 9 -7 9 -15z m-1190 -41 c0
-8 -4 -12 -10 -9 -5 3 -10 10 -10 16 0 5 5 9 10 9 6 0 10 -7 10 -16z m1708 7
c6 -1 12 -9 13 -18 0 -15 2 -15 9 2 6 13 9 15 9 5 1 -9 4 -11 9 -5 6 10 16 11
40 6 4 -1 -3 -10 -16 -21 -13 -11 -21 -23 -18 -28 2 -4 -4 -9 -15 -9 -10 -1
-19 4 -19 10 0 9 -2 9 -8 1 -4 -7 -16 -13 -27 -16 -15 -2 -20 -11 -20 -33 0
-20 -6 -31 -17 -33 -33 -6 -35 -62 -2 -62 18 0 18 -30 1 -54 -12 -16 -15 -17
-20 -4 -3 10 -16 15 -34 13 -42 -4 -62 -15 -56 -31 3 -9 -1 -14 -13 -14 -16 0
-15 -4 8 -25 15 -14 30 -41 34 -60 3 -20 16 -40 30 -50 13 -8 24 -12 25 -8 0
5 4 -2 9 -14 9 -23 30 -32 30 -13 0 17 39 11 60 -10 11 -11 26 -20 34 -20 7 0
16 -11 18 -24 6 -28 -9 -59 -23 -51 -5 4 -9 -12 -9 -34 0 -23 -4 -41 -9 -41
-5 0 -11 -10 -13 -22 -2 -15 -11 -24 -25 -26 -13 -2 -23 -7 -23 -12 0 -4 -9
-6 -20 -3 -11 3 -20 0 -20 -6 0 -14 -37 -15 -42 0 -2 5 -18 11 -37 11 -18 1
-35 7 -38 14 -2 7 -15 15 -28 18 -13 3 -27 15 -30 26 -5 14 -15 20 -38 20 -26
0 -35 6 -45 30 -8 16 -11 38 -8 48 5 15 -1 23 -26 35 -18 9 -29 17 -24 17 5 0
4 6 -1 13 -6 6 -13 24 -17 40 -5 20 -12 27 -31 27 -14 0 -24 5 -23 12 2 6 -8
14 -22 18 -17 4 -24 12 -22 25 3 13 -1 16 -12 12 -9 -4 -16 -2 -16 3 0 6 8 10
17 10 14 0 13 3 -5 16 -12 8 -22 25 -22 37 0 17 -2 19 -9 8 -7 -11 -10 -10
-13 5 -5 25 15 101 30 116 7 7 12 18 12 25 0 17 20 17 21 1 0 -7 7 1 14 17 8
17 14 26 15 22 0 -5 5 -5 11 -1 8 4 7 9 -2 15 -11 7 -10 9 3 9 9 0 18 5 20 12
3 7 11 9 24 4 10 -5 56 -8 102 -7 49 1 82 -3 82 -9 0 -13 47 -13 55 0 3 6 22
10 41 10 31 0 35 3 29 20 -5 16 -2 20 14 20 15 0 19 -5 14 -16 -5 -14 -3 -15
16 -4 13 6 20 17 18 24 -3 8 3 12 16 10 12 -1 28 -3 35 -3z m-1751 -148 c-3
-10 -5 -4 -5 12 0 17 2 24 5 18 2 -7 2 -21 0 -30z m-25 -15 c-6 -6 -7 0 -4 19
5 21 7 23 10 9 2 -10 0 -22 -6 -28z m1188 -1254 c0 -7 -10 -19 -22 -25 -13 -7
-33 -23 -45 -36 l-22 -23 2 30 c1 16 5 30 10 30 4 0 6 4 5 9 -2 5 8 18 21 30
18 16 27 18 38 10 7 -6 13 -17 13 -25z m-3833 -861 c-3 -10 -5 -4 -5 12 0 17
2 24 5 18 2 -7 2 -21 0 -30z m-57 -149 c0 -8 5 -12 10 -9 6 3 10 -1 10 -9 0
-9 -7 -16 -16 -16 -11 0 -14 -6 -9 -22 5 -19 4 -20 -5 -8 -9 11 -13 12 -17 3
-7 -18 -23 -16 -23 2 0 8 6 14 13 13 7 -2 13 10 15 30 3 32 22 46 22 16z
m-625 -114 c3 -5 1 -10 -4 -10 -6 0 -11 5 -11 10 0 6 2 10 4 10 3 0 8 -4 11
-10z m2808 -575 c18 -8 58 -24 90 -35 62 -23 67 -33 43 -91 -7 -19 -26 -128
-42 -244 -16 -115 -30 -199 -32 -185 -2 14 1 63 7 110 29 232 34 280 28 287
-4 3 -9 4 -11 2 -3 -2 -14 -76 -26 -164 -23 -173 -38 -244 -48 -229 -4 5 -19
15 -34 21 -16 7 -28 19 -28 26 0 9 -11 12 -35 9 l-36 -4 6 38 c12 83 36 303
41 374 3 41 7 81 10 88 5 16 29 15 67 -3z m-614 -27 c-1 -7 -5 -24 -9 -38 -7
-22 -8 -21 -9 13 -1 20 4 37 9 37 6 0 10 -6 9 -12z m822 -124 l-9 -39 -1 41
c-1 22 2 44 6 48 12 12 14 -8 4 -50z m580 -97 c-13 -13 -15 34 -3 73 6 21 7
18 10 -19 2 -24 -2 -49 -7 -54z m-352 15 c-12 -87 -30 -116 -22 -37 6 58 20
112 27 104 2 -2 0 -33 -5 -67z m-1082 26 c-3 -8 -6 -5 -6 6 -1 11 2 17 5 13 3
-3 4 -12 1 -19z m1510 -10 c-3 -7 -5 -2 -5 12 0 14 2 19 5 13 2 -7 2 -19 0
-25z m-315 -45 c-2 -27 -8 -52 -14 -58 -9 -10 -1 80 9 98 8 13 8 8 5 -40z
m205 -50 c-3 -10 -5 -4 -5 12 0 17 2 24 5 18 2 -7 2 -21 0 -30z m-518 -37 c-9
-8 -10 -7 -5 7 3 10 7 24 7 30 1 7 3 4 6 -7 3 -10 -1 -23 -8 -30z m122 -13
c-9 -16 -10 -15 -11 8 0 14 3 29 8 33 12 12 14 -22 3 -41z m116 -15 c-3 -7 -5
-2 -5 12 0 14 2 19 5 13 2 -7 2 -19 0 -25z m-1011 -15 c-2 -10 2 -21 8 -25 6
-4 -1 -8 -16 -8 -30 0 -37 17 -16 38 17 17 27 15 24 -5z m825 -36 c-13 -13
-15 1 -4 30 7 17 8 17 11 -1 2 -10 -1 -23 -7 -29z m-743 -6 c-3 -18 -45 -28
-59 -14 -5 5 -6 18 -3 30 5 19 9 20 35 11 20 -7 29 -16 27 -27z m868 13 c-4
-9 -9 -15 -11 -12 -3 3 -3 13 1 22 4 9 9 15 11 12 3 -3 3 -13 -1 -22z m-796
-21 c0 -5 -7 -16 -14 -26 -13 -16 -14 -16 -18 8 -4 19 -1 25 13 25 11 0 19 -3
19 -7z m30 -23 c0 -5 -7 -10 -16 -10 -8 0 -12 5 -9 10 3 6 10 10 16 10 5 0 9
-4 9 -10z m22 -12 c-7 -7 -12 -8 -12 -2 0 14 12 26 19 19 2 -3 -1 -11 -7 -17z
m43 -9 c10 -14 1 -21 -19 -13 -9 3 -13 10 -10 15 7 12 21 11 29 -2z m566 -36
c-10 -17 -10 -16 -11 3 0 23 13 41 18 25 2 -6 -1 -18 -7 -28z m-527 21 c9 -3
16 -13 16 -21 0 -8 -4 -11 -10 -8 -5 3 -10 0 -11 -7 0 -7 -4 -4 -9 7 -15 36
-13 40 14 29z m643 -26 c-3 -8 -6 -5 -6 6 -1 11 2 17 5 13 3 -3 4 -12 1 -19z
m-437 -58 c0 -5 -4 -10 -10 -10 -5 0 -10 5 -10 10 0 6 5 10 10 10 6 0 10 -4
10 -10z m-2206 -530 c10 -44 24 -86 30 -93 18 -22 97 -52 104 -40 11 16 47 32
89 39 21 3 41 8 44 10 3 2 63 8 133 14 83 6 149 18 192 32 56 20 66 21 74 8
14 -22 12 -34 -7 -56 -28 -31 -75 -64 -83 -59 -4 2 -20 -15 -35 -40 -16 -24
-32 -42 -37 -39 -4 3 -8 -1 -8 -8 0 -10 -3 -9 -10 2 -7 12 -10 11 -16 -5 -4
-11 -20 -33 -36 -49 -15 -17 -28 -39 -28 -50 0 -15 -3 -17 -9 -8 -6 10 -10 4
-14 -18 -4 -17 -14 -38 -22 -46 -17 -18 -11 -36 9 -28 8 3 16 -2 19 -13 4 -15
5 -15 6 3 1 17 6 20 26 16 28 -5 33 -20 10 -28 -8 -3 -17 -14 -20 -25 -4 -11
-11 -17 -16 -14 -5 4 -12 -1 -15 -9 -3 -9 -10 -13 -15 -10 -5 3 -9 1 -9 -4 0
-15 -59 -72 -75 -72 -8 0 -15 -7 -15 -17 0 -9 -3 -14 -6 -10 -3 3 -17 -6 -30
-20 -13 -14 -24 -22 -24 -17 0 5 -22 -16 -50 -46 -27 -30 -50 -58 -50 -62 0
-5 -6 -8 -14 -8 -8 0 -23 -13 -33 -30 -9 -16 -22 -30 -28 -30 -11 0 -85 -73
-85 -84 0 -16 -43 -95 -49 -92 -11 7 -64 -111 -55 -125 4 -7 3 -10 -3 -6 -11
7 -43 -50 -43 -75 0 -8 -5 -19 -11 -25 -6 -6 -14 -26 -19 -44 -4 -19 -18 -61
-29 -94 -12 -33 -26 -80 -32 -104 -6 -23 -12 -41 -15 -38 -3 2 7 51 21 108 24
95 43 153 105 323 12 32 25 98 31 145 11 100 27 176 44 211 15 29 99 276 114
335 9 34 7 48 -14 102 -21 51 -27 89 -34 205 -4 79 -6 149 -3 156 11 32 30 6
46 -68z m533 -342 c-3 -8 -6 -5 -6 6 -1 11 2 17 5 13 3 -3 4 -12 1 -19z m3
-25 c0 -5 -8 -17 -17 -28 -14 -18 -15 -18 -9 -2 3 10 6 23 6 28 0 5 5 9 10 9
6 0 10 -3 10 -7z m-40 -38 c0 -8 -4 -15 -10 -15 -5 0 -10 7 -10 15 0 8 5 15
10 15 6 0 10 -7 10 -15z m-33 -11 c-3 -3 -12 -4 -19 -1 -8 3 -5 6 6 6 11 1 17
-2 13 -5z m712 -736 c-8 -14 -14 -18 -17 -10 -4 13 17 46 25 38 3 -2 -1 -15
-8 -28z m-108 -92 c-11 -26 -31 -36 -31 -14 0 13 31 50 37 44 2 -2 -1 -15 -6
-30z m-158 -163 c1 -38 -3 -67 -10 -74 -7 -7 -13 -20 -13 -29 0 -9 -11 -22
-25 -28 -24 -11 -25 -10 -25 23 0 19 -4 35 -10 35 -10 0 -37 -57 -44 -94 -7
-35 -26 -79 -32 -73 -9 9 16 106 44 167 13 30 31 71 40 90 8 19 24 48 36 63
l20 28 9 -23 c5 -13 10 -51 10 -85z m-422 4 c-10 -9 -11 -8 -5 6 3 10 9 15 12
12 3 -3 0 -11 -7 -18z"/>
<path d="M6280 12133 c0 -4 5 -15 10 -23 8 -13 10 -13 10 2 0 9 -4 20 -10 23
-5 3 -10 3 -10 -2z"/>
<path d="M1642 1670 c0 -14 2 -19 5 -12 2 6 2 18 0 25 -3 6 -5 1 -5 -13z"/>
<path d="M1408 1635 c-2 -2 -19 -6 -37 -7 -18 -1 -35 -6 -38 -11 -3 -5 -9 -3
-14 4 -7 11 -9 10 -9 -5 0 -15 -3 -16 -15 -6 -11 9 -15 9 -15 1 0 -7 -5 -9
-10 -6 -6 3 -16 0 -23 -7 -15 -16 -47 -108 -47 -136 0 -33 20 -69 46 -82 20
-11 28 -10 58 11 19 13 33 25 31 27 -2 2 7 16 21 30 13 15 24 33 24 40 0 7 7
15 15 18 8 4 12 10 9 15 -3 5 2 12 10 15 9 3 16 12 16 20 0 8 4 14 9 14 5 0
12 7 15 16 4 12 1 14 -13 9 -15 -5 -18 -2 -14 13 4 18 -9 37 -19 27z"/>
<path d="M1425 1389 c-4 -6 -5 -12 -2 -15 2 -3 7 2 10 11 7 17 1 20 -8 4z"/>
<path d="M1450 1390 c0 -5 5 -10 10 -10 6 0 10 5 10 10 0 6 -4 10 -10 10 -5 0
-10 -4 -10 -10z"/>
<path d="M6270 12770 c0 -5 5 -10 10 -10 6 0 10 5 10 10 0 6 -4 10 -10 10 -5
0 -10 -4 -10 -10z"/>
<path d="M6311 12644 c0 -11 3 -14 6 -6 3 7 2 16 -1 19 -3 4 -6 -2 -5 -13z"/>
<path d="M6245 12528 c9 -29 11 -31 24 -23 16 9 13 19 -10 33 -19 12 -20 12
-14 -10z"/>
<path d="M6210 12520 c0 -5 7 -10 15 -10 8 0 15 5 15 10 0 6 -7 10 -15 10 -8
0 -15 -4 -15 -10z"/>
<path d="M6343 12018 c7 -21 -18 -26 -26 -5 -4 7 -6 6 -6 -4 -1 -19 25 -33 34
-19 4 6 12 10 20 10 12 0 12 -5 -1 -35 -12 -30 -12 -35 0 -35 14 0 18 8 30 62
5 22 3 26 -9 22 -8 -4 -23 0 -32 7 -15 12 -16 12 -10 -3z"/>
<path d="M6247 11963 c6 -52 13 -55 13 -5 0 23 -4 42 -9 42 -4 0 -6 -17 -4
-37z"/>
<path d="M6212 11900 c0 -14 2 -19 5 -12 2 6 2 18 0 25 -3 6 -5 1 -5 -13z"/>
<path d="M6270 11910 c0 -5 5 -10 10 -10 6 0 10 5 10 10 0 6 -4 10 -10 10 -5
0 -10 -4 -10 -10z"/>
<path d="M6181 11854 c0 -11 3 -14 6 -6 3 7 2 16 -1 19 -3 4 -6 -2 -5 -13z"/>
<path d="M6270 11660 c0 -5 5 -10 10 -10 6 0 10 5 10 10 0 6 -4 10 -10 10 -5
0 -10 -4 -10 -10z"/>
<path d="M6201 11504 c0 -11 3 -14 6 -6 3 7 2 16 -1 19 -3 4 -6 -2 -5 -13z"/>
<path d="M6145 11250 c-3 -5 -1 -10 4 -10 6 0 11 5 11 10 0 6 -2 10 -4 10 -3
0 -8 -4 -11 -10z"/>
<path d="M6071 11154 c0 -11 3 -14 6 -6 3 7 2 16 -1 19 -3 4 -6 -2 -5 -13z"/>
<path d="M6018 11107 c-10 -25 -10 -29 7 -51 12 -16 17 -17 30 -6 17 14 20 56
5 65 -6 4 -10 -5 -10 -19 0 -35 -18 -33 -22 2 -2 22 -4 24 -10 9z"/>
<path d="M5805 11090 c-3 -5 -1 -10 4 -10 6 0 11 5 11 10 0 6 -2 10 -4 10 -3
0 -8 -4 -11 -10z"/>
<path d="M5948 11033 c7 -3 16 -2 19 1 4 3 -2 6 -13 5 -11 0 -14 -3 -6 -6z"/>
<path d="M6006 11023 c-6 -14 -5 -15 5 -6 7 7 10 15 7 18 -3 3 -9 -2 -12 -12z"/>
<path d="M3550 10044 c0 -8 5 -12 10 -9 6 3 10 10 10 16 0 5 -4 9 -10 9 -5 0
-10 -7 -10 -16z"/>
<path d="M3653 9969 c3 -13 -2 -28 -14 -40 -30 -30 -22 -43 10 -17 34 26 43
78 15 78 -12 0 -15 -6 -11 -21z"/>
<path d="M3601 9864 c0 -11 3 -14 6 -6 3 7 2 16 -1 19 -3 4 -6 -2 -5 -13z"/>
<path d="M3741 9804 c0 -11 3 -14 6 -6 3 7 2 16 -1 19 -3 4 -6 -2 -5 -13z"/>
<path d="M5730 9744 c0 -8 5 -12 10 -9 6 4 8 11 5 16 -9 14 -15 11 -15 -7z"/>
<path d="M3686 9528 c5 -8 1 -9 -12 -4 -15 6 -17 5 -6 -5 6 -7 11 -24 11 -38
-1 -17 -3 -20 -6 -8 -2 9 -8 17 -13 17 -11 0 -19 -60 -8 -66 4 -3 8 -14 8 -26
0 -17 -2 -18 -15 -8 -12 10 -15 10 -15 -3 0 -9 5 -19 10 -22 16 -10 12 -37 -7
-51 -10 -7 -18 -23 -19 -36 -1 -13 -4 -35 -9 -50 -5 -22 -4 -28 8 -28 9 0 17
14 21 36 4 19 16 51 26 69 19 34 20 41 22 105 1 19 3 29 5 22 4 -10 8 -10 19
-1 17 14 18 61 2 77 -9 9 -9 12 0 12 7 0 12 5 12 10 0 6 -9 10 -21 10 -13 0
-18 -4 -13 -12z"/>
<path d="M3761 9504 c0 -11 3 -14 6 -6 3 7 2 16 -1 19 -3 4 -6 -2 -5 -13z"/>
<path d="M5931 9504 c0 -11 3 -14 6 -6 3 7 2 16 -1 19 -3 4 -6 -2 -5 -13z"/>
<path d="M3494 9448 c3 -11 0 -18 -7 -18 -11 0 -57 -86 -57 -105 0 -15 19 -1
30 23 8 15 19 34 26 42 18 25 23 46 12 61 -8 11 -9 10 -4 -3z"/>
<path d="M5915 9450 c-3 -5 -1 -10 4 -10 6 0 11 5 11 10 0 6 -2 10 -4 10 -3 0
-8 -4 -11 -10z"/>
<path d="M3815 9370 c-3 -5 -1 -10 4 -10 6 0 11 5 11 10 0 6 -2 10 -4 10 -3 0
-8 -4 -11 -10z"/>
<path d="M3750 9350 c0 -5 5 -10 10 -10 6 0 10 5 10 10 0 6 -4 10 -10 10 -5 0
-10 -4 -10 -10z"/>
<path d="M6000 8963 c-8 -2 -21 -7 -29 -9 -9 -3 -10 -8 -3 -17 5 -6 8 -23 7
-37 -3 -34 3 -42 25 -30 15 8 19 20 17 55 -1 25 -2 45 -2 44 0 0 -7 -3 -15 -6z
m-3 -75 c-3 -7 -5 -2 -5 12 0 14 2 19 5 13 2 -7 2 -19 0 -25z"/>
<path d="M3471 8664 c0 -11 3 -14 6 -6 3 7 2 16 -1 19 -3 4 -6 -2 -5 -13z"/>
<path d="M6065 8490 c-3 -5 -1 -10 4 -10 6 0 11 5 11 10 0 6 -2 10 -4 10 -3 0
-8 -4 -11 -10z"/>
<path d="M4960 8225 c-14 -8 -45 -17 -69 -21 -24 -4 -56 -13 -70 -20 -14 -8
-32 -14 -39 -14 -7 0 -15 -7 -19 -16 -5 -13 -7 -13 -14 -2 -5 7 -9 8 -9 2 0
-6 -12 -10 -27 -10 -16 1 -38 -4 -50 -11 -17 -10 -23 -10 -26 0 -3 7 -6 4 -6
-6 -1 -10 -5 -16 -9 -13 -5 3 -19 -4 -31 -15 -12 -11 -32 -22 -44 -24 -35 -5
-87 -26 -87 -36 0 -5 -8 -9 -18 -9 -10 0 -27 -7 -38 -15 -10 -8 -31 -15 -46
-15 -17 0 -31 -8 -38 -20 -6 -11 -17 -20 -25 -20 -8 0 -15 -3 -15 -8 0 -4 -13
-13 -28 -20 -28 -12 -92 -69 -92 -81 0 -4 19 -5 43 -3 41 4 42 4 25 -15 -30
-33 -22 -41 36 -39 45 1 62 7 95 34 22 18 44 32 50 32 11 0 43 -54 39 -67 -1
-4 11 -22 27 -39 25 -25 40 -32 89 -37 107 -11 166 38 188 158 9 50 18 69 31
73 9 2 17 8 17 13 0 17 18 9 23 -11 3 -13 11 -18 20 -14 10 3 18 -2 22 -16 4
-12 9 -19 12 -16 3 3 14 1 24 -5 13 -7 19 -21 19 -44 0 -40 11 -44 41 -14 18
18 25 19 46 10 20 -9 24 -17 19 -35 -4 -15 -1 -26 7 -29 27 -10 40 10 39 57
-2 39 1 46 17 46 11 0 21 5 23 11 2 6 17 12 33 12 16 0 31 -6 33 -12 2 -6 9
-11 17 -11 12 0 25 42 25 85 0 24 24 37 69 38 26 1 61 29 61 50 0 6 12 23 26
36 26 25 20 41 -18 41 -10 0 -18 6 -18 14 0 8 -9 24 -19 37 l-19 24 -13 -28
c-11 -25 -17 -28 -58 -26 -25 1 -50 0 -56 -2 -5 -1 -28 6 -50 16 -22 10 -47
17 -56 16 -9 -1 -19 7 -22 19 -6 22 -47 29 -48 8 0 -7 -3 -5 -7 4 -6 14 -10
15 -32 3z m-315 -281 c29 11 14 -19 -31 -64 -40 -39 -45 -41 -39 -20 4 14 12
30 17 37 10 13 1 12 -49 -3 -15 -4 -23 -2 -23 6 0 20 27 40 54 40 14 0 26 5
26 11 0 8 5 8 15 -1 8 -7 22 -10 30 -6z m-355 -34 c0 -5 -5 -10 -11 -10 -5 0
-7 5 -4 10 3 6 8 10 11 10 2 0 4 -4 4 -10z m-40 -41 c0 -6 -4 -7 -10 -4 -5 3
-10 11 -10 16 0 6 5 7 10 4 6 -3 10 -11 10 -16z"/>
<path d="M3427 8176 c-3 -8 0 -17 7 -19 10 -4 12 1 9 14 -6 23 -9 24 -16 5z"/>
<path d="M4897 7684 c-11 -11 -8 -34 3 -34 6 0 10 8 10 18 0 15 2 15 11 2 9
-12 10 -12 7 -1 -5 17 -21 25 -31 15z"/>
<path d="M4713 7653 c-18 -7 -16 -23 2 -23 8 0 15 7 15 15 0 8 -1 15 -2 14 -2
0 -9 -3 -15 -6z"/>
<path d="M3436 6501 c5 -20 3 -23 -12 -19 -17 4 -19 0 -15 -36 2 -23 6 -43 10
-46 11 -9 31 -50 31 -64 0 -8 6 -21 13 -28 20 -20 27 -47 16 -54 -7 -4 -3 -14
9 -28 27 -29 35 -69 33 -149 -1 -38 2 -74 6 -80 10 -17 11 -47 1 -53 -25 -16
11 -125 47 -142 26 -12 60 1 80 32 20 29 78 66 106 66 23 0 25 22 4 40 -8 7
-15 24 -16 39 0 23 -1 24 -9 6 -8 -18 -9 -18 -9 6 -1 14 -5 29 -10 35 -5 5
-11 18 -13 29 -3 17 -7 15 -23 -15 -19 -34 -20 -34 -23 -10 -2 13 0 26 6 28
21 7 -16 182 -39 182 -5 0 -9 7 -9 16 0 8 -6 22 -14 29 -7 8 -17 35 -20 60 -4
26 -14 49 -22 52 -8 3 -14 16 -14 29 0 13 -4 24 -10 24 -5 0 -7 6 -4 14 3 8 0
23 -6 33 -10 16 -11 16 -6 1 3 -12 0 -18 -9 -18 -8 0 -15 5 -15 10 0 6 -13 10
-29 10 -16 0 -32 6 -35 13 -3 6 -3 1 0 -12z"/>
<path d="M4871 5814 c0 -11 3 -14 6 -6 3 7 2 16 -1 19 -3 4 -6 -2 -5 -13z"/>
<path d="M3243 5231 c-3 -12 -9 -21 -13 -21 -8 0 -19 -30 -25 -68 -2 -12 1
-20 6 -16 10 6 -16 -64 -39 -106 -13 -23 -13 -23 -9 -2 6 26 -9 31 -16 5 -6
-24 1 30 9 67 4 18 2 30 -4 30 -9 0 -18 -21 -27 -60 -2 -8 -9 -16 -14 -18 -6
-2 -11 -8 -11 -14 0 -6 7 -7 16 -4 12 4 14 1 9 -13 -4 -14 0 -21 16 -26 11 -4
24 -3 29 2 14 15 100 216 100 234 0 27 -21 34 -27 10z"/>
<path d="M3095 5090 c-3 -5 -1 -10 4 -10 6 0 11 5 11 10 0 6 -2 10 -4 10 -3 0
-8 -4 -11 -10z"/>
<path d="M4938 4523 c7 -3 16 -2 19 1 4 3 -2 6 -13 5 -11 0 -14 -3 -6 -6z"/>
<path d="M2594 4448 c-4 -7 -15 -24 -23 -38 -10 -15 -11 -21 -3 -16 13 7 46
66 38 66 -3 0 -8 -6 -12 -12z"/>
<path d="M2501 4424 c0 -11 3 -14 6 -6 3 7 2 16 -1 19 -3 4 -6 -2 -5 -13z"/>
<path d="M2480 4416 c0 -8 4 -17 9 -20 5 -4 7 3 4 14 -6 23 -13 26 -13 6z"/>
<path d="M2551 4321 c-12 -16 -21 -33 -21 -37 0 -4 11 7 25 26 14 19 25 35 25
37 0 9 -11 0 -29 -26z"/>
<path d="M2288 4133 c-19 -22 -32 -56 -18 -48 6 3 10 14 10 23 0 14 2 14 9 3
7 -11 10 -9 16 8 9 30 2 35 -17 14z"/>
<path d="M2170 4072 c0 -6 5 -14 11 -17 6 -4 8 -13 5 -21 -3 -8 -1 -14 4 -14
15 0 12 36 -5 50 -9 8 -15 9 -15 2z"/>
<path d="M2221 4057 c-13 -21 -12 -21 5 -5 10 10 16 20 13 22 -3 3 -11 -5 -18
-17z"/>
<path d="M2247 4043 c-4 -3 -7 -11 -7 -17 0 -6 5 -5 12 2 6 6 9 14 7 17 -3 3
-9 2 -12 -2z"/>
<path d="M2654 3836 c-3 -8 -11 -13 -18 -10 -16 6 -83 -22 -93 -39 -4 -8 -37
-20 -71 -27 -35 -7 -66 -19 -69 -27 -3 -7 -9 -10 -14 -7 -5 3 -9 1 -9 -4 0 -6
-13 -15 -30 -21 -23 -7 -30 -7 -30 2 0 9 -13 11 -40 9 -22 -2 -40 -8 -40 -14
0 -5 -5 -6 -10 -3 -16 10 -40 -14 -40 -40 0 -16 6 -22 18 -21 13 1 16 -5 14
-28 -2 -17 -8 -38 -13 -47 -9 -17 -11 -17 -39 -1 -17 9 -33 26 -36 36 -7 20
-42 55 -57 56 -5 0 -23 -11 -41 -25 -18 -14 -36 -25 -40 -25 -24 0 -39 -35
-37 -87 1 -31 4 -60 7 -64 3 -5 2 -9 -3 -9 -4 0 -9 -12 -10 -27 -1 -19 1 -22
8 -12 7 12 9 12 9 -1 0 -8 7 -28 15 -44 8 -15 12 -32 9 -37 -3 -6 0 -17 7 -25
7 -9 14 -23 16 -32 11 -68 24 -113 42 -147 11 -21 21 -32 21 -22 0 23 17 21
25 -3 3 -11 12 -20 19 -20 9 0 12 -9 8 -25 -2 -15 0 -25 7 -25 6 0 11 -7 11
-15 0 -9 7 -18 15 -21 8 -4 15 -14 15 -24 0 -17 25 -35 43 -32 4 1 7 -6 7 -15
0 -9 3 -14 6 -11 3 4 29 -5 57 -18 29 -13 64 -24 79 -24 15 0 42 -9 60 -20 36
-22 55 -24 77 -11 16 10 43 154 35 187 -12 47 14 92 69 121 45 25 52 32 49 56
-1 14 4 37 11 49 8 14 15 57 16 108 1 46 5 88 7 92 3 5 3 26 -1 48 -5 28 -11
37 -21 33 -18 -7 -18 2 1 31 9 13 15 28 14 32 -4 25 3 44 15 44 19 0 28 29 28
88 1 26 7 59 14 74 8 15 14 35 13 45 0 14 -2 13 -9 -4 -12 -29 -40 -31 -33 -3
7 25 -4 26 -30 3 -19 -17 -20 -17 -14 0 4 9 2 17 -4 17 -5 0 -12 -6 -15 -14z
m-250 -361 c-6 -16 -24 -21 -24 -7 0 11 11 22 21 22 5 0 6 -7 3 -15z m155 -61
c-49 -53 -175 -142 -185 -131 -2 2 38 34 91 72 52 37 98 71 101 76 3 5 8 9 11
9 4 0 -4 -12 -18 -26z m1 -279 c-6 -15 -13 -26 -16 -23 -2 3 0 18 6 33 6 15
13 26 16 23 2 -3 0 -18 -6 -33z"/>
<path d="M4391 3824 c0 -11 3 -14 6 -6 3 7 2 16 -1 19 -3 4 -6 -2 -5 -13z"/>
<path d="M2170 3699 c0 -5 5 -7 10 -4 6 3 10 8 10 11 0 2 -4 4 -10 4 -5 0 -10
-5 -10 -11z"/>
<path d="M1965 3663 c-9 -20 -18 -48 -22 -62 -6 -23 -4 -24 10 -13 9 8 13 20
10 29 -4 9 -2 14 3 11 5 -4 17 11 26 33 14 32 14 39 2 39 -7 0 -21 -17 -29
-37z"/>
<path d="M830 3666 c0 -8 5 -18 10 -21 6 -3 10 3 10 14 0 12 -4 21 -10 21 -5
0 -10 -6 -10 -14z"/>
<path d="M635 3590 c3 -5 8 -10 11 -10 2 0 4 5 4 10 0 6 -5 10 -11 10 -5 0 -7
-4 -4 -10z"/>
<path d="M1887 3251 c-7 -30 5 -91 19 -91 22 0 27 21 8 36 -11 9 -13 13 -6 9
8 -4 12 4 12 28 0 35 -25 49 -33 18z"/>
<path d="M3177 3193 c-4 -3 -7 -11 -7 -17 0 -6 5 -5 12 2 6 6 9 14 7 17 -3 3
-9 2 -12 -2z"/>
<path d="M1288 2576 c-13 -12 -18 -14 -18 -4 0 8 -4 6 -11 -5 -7 -12 -7 -27 2
-51 11 -31 15 -33 37 -25 36 14 82 49 82 62 0 8 -3 7 -9 -2 -7 -11 -10 -9 -16
9 -6 20 -9 21 -17 7 -13 -23 -26 -21 -30 5 -3 21 -4 21 -20 4z"/>
<path d="M2180 913 c0 -14 19 -38 25 -32 8 8 -5 39 -16 39 -5 0 -9 -3 -9 -7z"/>
<animateColor  
           attributeName="fill"   
           begin="1s"   
           dur="10s"   
           values ="white; black; gray; bisque; white; grey; black; red"  
           repeatCount="indefinite"    
           /> 
</g>
</svg>
